ModelForces
version=1
nRows=4
nColumns=158
inDegrees=no

This file contains the forces exerted on a model during a simulation.

A force is a generalized force, meaning that it can be either a force (N) or a torque (Nm).

Units are S.I. units (second, meters, Newtons, ...)
Angles are in degrees.

endheader
time	glut_med1_r	glut_med2_r	glut_med3_r	glut_min1_r	glut_min2_r	glut_min3_r	semimem_r	semiten_r	bifemlh_r	bifemsh_r	sar_r	add_long_r	add_brev_r	add_mag1_r	add_mag2_r	add_mag3_r	tfl_r	pect_r	grac_r	glut_max1_r	glut_max2_r	glut_max3_r	iliacus_r	psoas_r	quad_fem_r	gem_r	peri_r	rect_fem_r	vas_med_r	vas_int_r	vas_lat_r	med_gas_r	lat_gas_r	soleus_r	tib_post_r	flex_dig_r	flex_hal_r	tib_ant_r	per_brev_r	per_long_r	per_tert_r	ext_dig_r	ext_hal_r	glut_med1_l	glut_med2_l	glut_med3_l	glut_min1_l	glut_min2_l	glut_min3_l	semimem_l	semiten_l	bifemlh_l	bifemsh_l	sar_l	add_long_l	add_brev_l	add_mag1_l	add_mag2_l	add_mag3_l	tfl_l	pect_l	grac_l	glut_max1_l	glut_max2_l	glut_max3_l	iliacus_l	psoas_l	quad_fem_l	gem_l	peri_l	rect_fem_l	vas_med_l	vas_int_l	vas_lat_l	med_gas_l	lat_gas_l	soleus_l	tib_post_l	flex_dig_l	flex_hal_l	tib_ant_l	per_brev_l	per_long_l	per_tert_l	ext_dig_l	ext_hal_l	ercspn_r	ercspn_l	intobl_r	intobl_l	extobl_r	extobl_l	femur_lat_meniscii_r.femur_lat_r.force.X	femur_lat_meniscii_r.femur_lat_r.force.Y	femur_lat_meniscii_r.femur_lat_r.force.Z	femur_lat_meniscii_r.femur_lat_r.torque.X	femur_lat_meniscii_r.femur_lat_r.torque.Y	femur_lat_meniscii_r.femur_lat_r.torque.Z	femur_lat_meniscii_r.meniscus_lat_r.force.X	femur_lat_meniscii_r.meniscus_lat_r.force.Y	femur_lat_meniscii_r.meniscus_lat_r.force.Z	femur_lat_meniscii_r.meniscus_lat_r.torque.X	femur_lat_meniscii_r.meniscus_lat_r.torque.Y	femur_lat_meniscii_r.meniscus_lat_r.torque.Z	femur_med_meniscii_r.femur_med_r.force.X	femur_med_meniscii_r.femur_med_r.force.Y	femur_med_meniscii_r.femur_med_r.force.Z	femur_med_meniscii_r.femur_med_r.torque.X	femur_med_meniscii_r.femur_med_r.torque.Y	femur_med_meniscii_r.femur_med_r.torque.Z	femur_med_meniscii_r.meniscus_med_r.force.X	femur_med_meniscii_r.meniscus_med_r.force.Y	femur_med_meniscii_r.meniscus_med_r.force.Z	femur_med_meniscii_r.meniscus_med_r.torque.X	femur_med_meniscii_r.meniscus_med_r.torque.Y	femur_med_meniscii_r.meniscus_med_r.torque.Z	femur_med_tibia_r.tibia_upper_r.force.X	femur_med_tibia_r.tibia_upper_r.force.Y	femur_med_tibia_r.tibia_upper_r.force.Z	femur_med_tibia_r.tibia_upper_r.torque.X	femur_med_tibia_r.tibia_upper_r.torque.Y	femur_med_tibia_r.tibia_upper_r.torque.Z	femur_med_tibia_r.femur_med_r.force.X	femur_med_tibia_r.femur_med_r.force.Y	femur_med_tibia_r.femur_med_r.force.Z	femur_med_tibia_r.femur_med_r.torque.X	femur_med_tibia_r.femur_med_r.torque.Y	femur_med_tibia_r.femur_med_r.torque.Z	femur_lat_tibia_r.tibia_upper_r.force.X	femur_lat_tibia_r.tibia_upper_r.force.Y	femur_lat_tibia_r.tibia_upper_r.force.Z	femur_lat_tibia_r.tibia_upper_r.torque.X	femur_lat_tibia_r.tibia_upper_r.torque.Y	femur_lat_tibia_r.tibia_upper_r.torque.Z	femur_lat_tibia_r.femur_lat_r.force.X	femur_lat_tibia_r.femur_lat_r.force.Y	femur_lat_tibia_r.femur_lat_r.force.Z	femur_lat_tibia_r.femur_lat_r.torque.X	femur_lat_tibia_r.femur_lat_r.torque.Y	femur_lat_tibia_r.femur_lat_r.torque.Z	aACL_R	pACL_R	aPCL_R	pPCL_R	aMCL_R	mMCL_R	pMCL_R	aLCL_R	mLCL_R	pLCL_R	aPCL_L	pPCL_L	aMCL_L	aLCL_L	ground_prescribedForce_-90_fx	ground_prescribedForce_-90_fy	ground_prescribedForce_-90_fz
      0.22615377	      9.29082919	      6.86031815	      7.36091926	      3.19350830	      3.75891759	      3.92817207	      0.00000000	      3.89438127	      4.45541481	      6.26209100	      1.77618874	      6.81211532	      4.96525566	      3.52982866	      2.98082444	      4.94055485	      3.49258859	      2.69204352	      1.65454243	      4.42718617	      6.73157714	      5.04227424	     24.82157662	     15.42540008	      4.37334473	      3.20800089	      5.38806892	    245.70457336	     45.72179163	     88.55511658	     66.34609255	      0.00000000	      0.00000000	     13.88816161	     11.91438228	      2.16290256	      3.23554424	     15.21098174	      5.37832831	     12.80824510	      6.72995344	      9.28402887	      2.74690542	      9.29082919	      6.86031815	      7.36091926	      3.19350830	      3.75891759	      3.92817207	     11.23201085	      5.01650911	      9.77102814	      8.70288001	      1.82374199	      6.81211532	      4.96525566	      3.52982866	      2.98082444	      4.94055485	      4.68742720	      2.69204352	      1.87648158	      4.42718617	      6.73157714	      5.04227424	     24.82157662	     15.42540008	      4.37334473	      3.20800089	      5.38806892	     13.51671247	      8.02067683	      9.23454165	      9.92148366	     19.04940706	      8.84833207	     40.96112684	     46.37023379	      3.79122745	      3.88423726	     10.60860125	      5.59303000	     15.24609979	      2.38628268	      6.93207676	      2.17921694	     30.04668449	     30.04668449	     10.99012052	     10.99012052	     28.59393666	     28.59393666	    202.83876903	     -1.41078002	     34.86593602	    -14.05242329	      4.97584023	     82.43557866	   -202.83876903	      1.41078002	    -34.86593602	      0.04605908	     -6.80290036	     -1.02499806	     64.69047146	    -45.90599006	    -13.26024010	      4.52589433	     -1.17847659	     26.08255432	    -64.69047146	     45.90599006	     13.26024010	      0.60956422	      1.28865363	     -1.41049361	   -629.73663568	     39.46145272	    101.19768024	      0.18457793	     11.13250905	     -3.15095727	    629.73663568	    -39.46145272	   -101.19768024	     40.28905897	    -10.85248412	    254.90259510	    -42.81444633	     -6.99523288	    -12.30620052	      0.25901111	     -1.58384213	     -0.00017228	     42.81444633	      6.99523288	     12.30620052	     -5.17177560	      1.05760483	     17.39127880	     42.06051434	     17.78097425	    821.96899509	    407.66250695	     14.38595981	      2.07009367	      0.00000000	      0.00000000	      0.00000000	      0.00000000	      0.00000000	      0.00000000	      0.00000001	      0.00000000	      0.00000000	   -110.00000000	      0.00000000
      0.23021730	      9.20048245	      6.79864078	      7.29392189	      3.16600769	      3.72899817	      3.89006113	      0.00000000	      3.86066470	      4.41543725	      6.22354433	      1.75991686	      6.75015027	      4.92290188	      3.49828360	      2.95354879	      4.89111533	      3.45150292	      2.66870359	      1.64307491	      4.38732497	      6.67080268	      4.99596333	     24.70892565	     15.29746234	      4.33485604	      3.18957459	      5.32378719	    246.21541876	     45.76291690	     88.85227048	     66.49089448	      0.00000000	      0.00000000	     13.68388948	     11.92928224	      2.11745080	      3.09410732	     15.12232223	      5.23076783	     12.56644899	      6.75094347	      9.12035627	      2.72195377	      9.20048245	      6.79864078	      7.29392189	      3.16600769	      3.72899817	      3.89006113	     11.10526773	      4.96814766	      9.66389258	      8.62622177	      1.80811069	      6.75015027	      4.92290188	      3.49828360	      2.95354879	      4.89111533	      4.65678852	      2.66870359	      1.86011396	      4.38732497	      6.67080268	      4.99596333	     24.70892565	     15.29746234	      4.33485604	      3.18957459	      5.32378719	     13.37021394	      7.94665006	      9.14775708	      9.82852680	     18.80962810	      8.73680798	     40.47130614	     46.16624287	      3.73926163	      3.83575899	     10.49718943	      5.52913764	     15.10854981	      2.36652675	      6.84533490	      2.15235327	     29.78734735	     29.78734735	     10.88710856	     10.88710856	     28.50117890	     28.50117890	    207.68119596	     -2.31017344	     32.97181004	    -13.26277053	      5.06003663	     84.41639280	   -207.68119596	      2.31017344	    -32.97181004	      0.01312424	     -6.85499472	     -1.08594416	     66.20610719	    -45.98891918	    -13.91444337	      4.78470030	     -1.20793143	     26.68534885	    -66.20610719	     45.98891918	     13.91444337	      0.61278646	      1.32989262	     -1.40674344	   -632.20281334	     40.15773560	    102.70970574	      0.18824058	     11.21348409	     -3.18383643	    632.20281334	    -40.15773560	   -102.70970574	     40.88980670	    -10.90600731	    255.90882769	    -44.26436805	     -7.09306943	    -12.47313289	      0.26263354	     -1.62733606	     -0.00592274	     44.26436805	      7.09306943	     12.47313289	     -5.24202294	      1.09000029	     17.98223126	     40.95009521	     16.36566788	    819.01747901	    400.81022806	      9.83671614	     -2.67190467	      0.00000000	      0.00000000	      0.00000000	      0.00000000	      0.00000000	      0.00000000	      0.00000001	      0.00000000	      0.00000000	   -110.00000000	      0.00000000
      0.23241382	      9.15363249	      6.76664939	      7.25917385	      3.15173791	      3.71347834	      3.87029802	      0.00000000	      3.84642612	      4.40157856	      6.20184660	      1.75527598	      6.71801225	      4.90090944	      3.48192174	      2.93940360	      4.86547863	      3.42284813	      2.65659451	      1.63694375	      4.36665146	      6.63928291	      4.97194656	     24.65051201	     15.23113886	      4.31488987	      3.18002347	      5.29037080	    246.08015415	     45.86679949	     88.99955641	     66.67261341	      0.00000000	      0.00000000	     13.55033330	     11.94000896	      2.10494300	      3.02797627	     15.08044395	      5.14868304	     12.42764378	      6.75165202	      9.02410811	      2.70604714	      9.15363249	      6.76664939	      7.25917385	      3.15173791	      3.71347834	      3.87029802	     11.03946744	      4.94306905	      9.60829487	      8.58645565	      1.79999827	      6.71801225	      4.90090944	      3.48192174	      2.93940360	      4.86547863	      4.64090104	      2.65659451	      1.85162259	      4.36665146	      6.63928291	      4.97194656	     24.65051201	     15.23113886	      4.31488987	      3.18002347	      5.29037080	     13.29419903	      7.90826521	      9.10276020	      9.78033266	     18.68474925	      8.67872761	     40.21669622	     46.06036875	      3.71229863	      3.81062298	     10.43939858	      5.49596208	     15.03705169	      2.35628394	      6.80019134	      2.13838282	     29.65278689	     29.65278689	     10.83368692	     10.83368692	     28.45308294	     28.45308294	    200.91526670	     -1.06081517	     35.43416457	    -14.29203466	      4.93009314	     81.64169111	   -200.91526670	      1.06081517	    -35.43416457	      0.05865922	     -6.76828048	     -0.99205592	     64.65149649	    -46.14512946	    -13.22193828	      4.50654142	     -1.17806100	     26.06934741	    -64.65149649	     46.14512946	     13.22193828	      0.61200917	      1.28645645	     -1.41940377	   -638.60288887	     39.67185827	    103.19865641	      0.18076255	     11.29236812	     -3.18434668	    638.60288887	    -39.67185827	   -103.19865641	     41.09572707	    -11.00054946	    258.49492377	    -46.58233661	     -7.58359066	    -13.41192760	      0.28134362	     -1.72449960	     -0.00130744	     46.58233661	      7.58359066	     13.41192760	     -5.63568654	      1.15061366	     18.92251903	     42.40490356	     18.06881643	    821.16955156	    407.77176720	     15.47047889	      3.17077664	      0.00000000	      0.00000000	      0.00000000	      0.00000000	      0.00000000	      0.00000000	      0.00000001	      0.00000000	      0.00000000	   -110.00000000	      0.00000000
      0.23461034	      9.10812446	      6.73556889	      7.22541700	      3.13787258	      3.69839982	      3.85110070	      0.00000000	      3.82330425	      4.37379442	      6.17050966	      1.75069807	      6.68679099	      4.87954685	      3.46602588	      2.92566275	      4.84057664	      3.40978940	      2.64482868	      1.62905326	      4.34656791	      6.60866273	      4.94861637	     24.59377279	     15.16672798	      4.29549064	      3.17074851	      5.25785567	    245.72206136	     45.59488113	     88.56860795	     66.43361991	      0.00000000	      0.00000000	     13.51358375	     11.96403788	      2.10203666	      2.97214100	     15.00808080	      5.07320103	     12.29552632	      6.74872966	      8.91385684	      2.68455573	      9.10812446	      6.73556889	      7.22541700	      3.13787258	      3.69839982	      3.85110070	     10.97550075	      4.91870845	      9.55426189	      8.54781910	      1.79211618	      6.68679099	      4.87954685	      3.46602588	      2.92566275	      4.84057664	      4.62546894	      2.64482868	      1.84337203	      4.34656791	      6.60866273	      4.94861637	     24.59377279	     15.16672798	      4.29549064	      3.17074851	      5.25785567	     13.22033025	      7.87098116	      9.05905592	      9.73352493	     18.56307900	      8.62214101	     39.96896683	     45.95746323	      3.68609345	      3.78620546	     10.38325158	      5.46370743	     14.96748472	      2.34633565	      6.75623484	      2.12478708	     29.52203936	     29.52203936	     10.78179265	     10.78179265	     28.40636714	     28.40636714	    202.29988828	     -1.31723043	     34.47355700	    -13.89615419	      4.94906667	     82.20796698	   -202.29988828	      1.31723043	    -34.47355700	      0.04738217	     -6.76636476	     -1.00917362	     64.80709580	    -46.03523912	    -13.55922766	      4.64318201	     -1.18262242	     26.13021947	    -64.80709580	     46.03523912	     13.55922766	      0.61110935	      1.29965117	     -1.41436358	   -622.41985820	     39.38822135	    100.36306704	      0.18670741	     11.00397004	     -3.12494881	    622.41985820	    -39.38822135	   -100.36306704	     39.95234816	    -10.72867874	    251.94657989	    -45.43590443	     -7.36207988	    -12.97648796	      0.27284085	     -1.67794865	     -0.00263150	     45.43590443	      7.36207988	     12.97648796	     -5.45324236	      1.12104599	     18.45725425	     42.18073289	     17.74490037	    820.73838146	    405.95273113	     14.00220523	      1.60379586	      0.00000000	      0.00000000	      0.00000000	      0.00000000	      0.00000000	      0.00000000	      0.00000001	      0.00000000	      0.00000000	   -110.00000000	      0.00000000
